<svg id="Layer_1" data-name="Layer 1" fill="white" xmlns="http://www.w3.org/2000/svg"
  viewBox="0 0 46.36 41.69">
  <defs>
    <style>
      .cls-1,.cls-2{fill:#ffffff;}.cls-1{stroke:#ffffff;stroke-miterlimit:10;stroke-width:0.25px;}</style>
  </defs>
  <path class="cls-1"
    d="M28.27,11.87a31.47,31.47,0,0,0-10.56.46L12.29,5.41a.84.84,0,0,0-1.49.4l-.7,4.48,1.3.75a.4.4,0,0,1,0,.69L9.7,12.85l-3.14,20a.22.22,0,0,0,.36.19l8.6-8.37A3.49,3.49,0,0,1,18,18.75a3.5,3.5,0,0,1,2.52,1.08l7.85-7.64A.19.19,0,0,0,28.27,11.87Z"
    transform="translate(-1.17 -4.22)" />
  <path class="cls-2"
    d="M38.59,18.77a.58.58,0,0,1-.07-1.16l7.62-1a.6.6,0,0,1,.66.51.58.58,0,0,1-.51.65l-7.62,1Z"
    transform="translate(-1.17 -4.22)" />
  <path class="cls-2"
    d="M38.89,21.42a.59.59,0,0,1-.08-1.17l7.62-1a.59.59,0,0,1,.66.5.59.59,0,0,1-.51.66l-7.62,1Z"
    transform="translate(-1.17 -4.22)" />
  <path class="cls-2" d="M39.33,23.91a.58.58,0,0,1-.08-1.16l7.62-1A.58.58,0,1,1,47,22.92l-7.62,1Z"
    transform="translate(-1.17 -4.22)" />
  <path class="cls-2"
    d="M10.1,18.77H10l-7.62-1a.58.58,0,0,1-.51-.65.59.59,0,0,1,.66-.51l7.62,1a.58.58,0,0,1-.08,1.16Z"
    transform="translate(-1.17 -4.22)" />
  <path class="cls-2"
    d="M9.81,21.42H9.74l-7.63-1a.59.59,0,0,1,.16-1.16l7.62,1a.59.59,0,0,1-.08,1.17Z"
    transform="translate(-1.17 -4.22)" />
  <path class="cls-2"
    d="M9.37,23.91H9.3l-7.62-1a.59.59,0,0,1-.51-.66.59.59,0,0,1,.66-.5l7.62,1a.58.58,0,0,1-.08,1.16Z"
    transform="translate(-1.17 -4.22)" />
  <path class="cls-1"
    d="M38.15,5.36a1.14,1.14,0,0,0-2-.66c-2.08,2.54-5.78,7.39-5.78,7.39s-4.07,3.79-9.25,8.68a3.49,3.49,0,0,1-3.16,5,3.57,3.57,0,0,1-1.63-.4c-3.31,3.17-6.88,6.49-9.72,9.33l35,0ZM31.2,24.3a2.06,2.06,0,1,1,2.06-2.06A2.06,2.06,0,0,1,31.2,24.3Z"
    transform="translate(-1.17 -4.22)" />
  <polygon class="cls-1" points="39.82 25.61 42.22 41.56 3.05 41.56 5.3 30.67 39.82 25.61" />
</svg>
