<svg id="Layer_1" data-name="Layer 1" xmlns="http://www.w3.org/2000/svg" viewBox="0 0 681.77 410.93"><defs><style>.cls-1,.cls-2,.cls-3{fill:#231f20;}.cls-1,.cls-2,.cls-4{stroke:#231f20;stroke-miterlimit:10;}.cls-2{stroke-width:0.25px;}.cls-4{fill:none;stroke-linecap:round;stroke-width:8px;}</style></defs><g id="Layer_4" data-name="Layer 4"><path class="cls-1" d="M712.24,184,494.09,231.91,470.45,31.73a7.73,7.73,0,0,0-5.26-6.53,7.88,7.88,0,0,0-8.16,2c-14.23,17.41-39.48,50.56-39.48,50.56s-27.89,25.9-63.25,59.4a23.88,23.88,0,0,1-32.77,31.19c-22.67,21.71-45.86,44.2-65.26,63.59L40.92,180.52a3.91,3.91,0,0,0-4.33,5.71L155.74,402.09A79.69,79.69,0,0,0,197,399.18c24.4-8.61,27.64-10.22,42.3-10.18,15.84,0,22.64,2.06,38.37,7.63,7.4,2.62,16.66,6,31.09,6.55,10.18.37,22.46-3.08,28.4-5.31,11.49-4.29,22.75-9.15,41.12-9.08,18.84.07,29.1,4.83,37.48,7.58,11.06,3.64,22.5,6.87,31.18,6.81,17.45-.12,24.24-3.61,33.58-7s19.39-7.66,34.78-7.72a95,95,0,0,1,38.79,7.72c11.59,4.73,25.12,8.55,45.72,6.37l116.56-213A3.78,3.78,0,0,0,712.24,184ZM196.88,343.55H158.45l1.22-20.49,15.51.73L177.73,310H164.64l-15-40,21.94-7.64,6.78,19.52,3.88-.12L185.73,261l29.69,9ZM224.76,342l5.09-72.73h50.3l2.18,72.61Zm122.06-.73-21.21.12.36-12-6.79-.24.12,13.33H294.21l-2.66-75.87L319.3,266l.25,49.82H326l1.33-47.27,19.52-.61Zm9.21.61,4.85-72.49,50.3-.12,2.3,72.73Zm52.85-194.67a14.06,14.06,0,1,1,14.06,14.06A14.06,14.06,0,0,1,408.88,147.18ZM450.45,328l18.67.12-1.21,15.64H425.12l-2.18-77.7h47.27l-3.76,28.36-17.57-3.39ZM542.7,346.7l-28.73.12V331.18l-8.24-.12L502,344.76l-23,.12,21.94-83.76,41.82.12Zm52.48-50.55.73,49.09-27.64.85.49-50.42H552l1.82-33.94,54.67.12,2.66,34.54Z" transform="translate(-35.58 -24.29)"/><polygon class="cls-2" points="220.32 293.56 225.29 293.56 225.54 262.53 222.51 262.53 220.32 293.56"/><polygon class="cls-2" points="351.23 293.56 356.2 293.68 356.32 262.29 353.29 262.29 351.23 293.56"/><polygon class="cls-2" points="472.6 297.44 474.96 288.62 478.23 288.71 478.14 297.35 472.6 297.44"/><path class="cls-3" d="M325.13,412l-7,.18-.3,3.6,7.44,1.41,0,17.82-14.46.22.59-3.79,11.13.64-.7-11.33-8-.85-.07-9.71,11.57-1.67Zm-12.71,22.4v0H312v0Zm.82-.72c.59.07,1.93.08,4,0-.88-.07-2.42-.12-4.59-.14Zm5.71.91a20.42,20.42,0,0,0,2.47-.13c-3.79-.07-6.18-.08-7.14,0C316.23,434.51,317.79,434.56,319,434.57Zm-.73-.45c1.93.08,3.37.1,4.32,0C320.32,434.09,318.88,434.08,318.22,434.12Z" transform="translate(-35.58 -24.29)"/><path class="cls-3" d="M334.56,407.46l18.17.19.07,5.37-7.06-.45.35,22.35-4.46.24.54-24-7.4.22Zm5.38,1.46h-.42a20.1,20.1,0,0,0-2.16.12v.06h1.8c1.12,0,2.52,0,4.21,0a3.77,3.77,0,0,0-1.32-.15C341.17,408.94,340.47,408.92,339.94,408.92Zm8.23-.34-.28-.07q-5.2-.15-7.8-.07a38.48,38.48,0,0,0,4.66.22h1.9Zm3.9-.08a15.69,15.69,0,0,0-3.28,0A15.54,15.54,0,0,0,352.07,408.5Z" transform="translate(-35.58 -24.29)"/><path class="cls-3" d="M365.56,408.29l-.16,19.79,7.62,1,.07-21.22,5.19.26-.34,24.26-12.45.35L362.18,430l-.41-21.61Zm-2.89,8.92a33.58,33.58,0,0,0,0-4.63c-.07.95-.08,2.7,0,5.25A5.64,5.64,0,0,0,362.67,417.21Zm.61-3.72a44.05,44.05,0,0,0-.06-4.58C363.18,411.26,363.2,412.79,363.28,413.49Zm10.73,2.2c-.09-3-.16-4.57-.22-4.84q0,11.16.13,14.68Q374,419.1,374,415.69Z" transform="translate(-35.58 -24.29)"/><path class="cls-3" d="M387.24,408.47l11.88-.24,3.93,4L402.9,429l-2.84,3.65-12.82-.71Zm8.76,23.2.64,0c1,0,2.05,0,3.14,0v-.07l-2.62-.14q-2.46-.17-6.16-.35a6.22,6.22,0,0,0,1.93.3C394.22,431.56,395.24,431.64,396,431.67Zm-3.33-19.86-1.59,16.48,8.05-.53.69-15Zm7.91,6.24-.08.27q-.3,5.21-.3,7.8a35.08,35.08,0,0,0,.36-4.66l.05-1.89Zm.56-1.75a14.9,14.9,0,0,0-.07,3.28A15.2,15.2,0,0,0,401.14,416.3Z" transform="translate(-35.58 -24.29)"/><path class="cls-3" d="M412.6,432.61,412,409.27l4.72,0-.08,23.22Zm1.08-16.73c0-.36,0-.64,0-.84,0-1.31-.11-2.68-.24-4.1h-.07l.07,3.44c0,2.15.05,4.84.1,8.06a10.12,10.12,0,0,0,.15-2.53C413.7,418.22,413.7,416.87,413.68,415.88Zm1.71,10.59a16.22,16.22,0,0,0,0,3.28A14.87,14.87,0,0,0,415.39,426.47Zm.65-.12v-1.9a36.47,36.47,0,0,0-.22-4.66q-.07,2.59.07,7.81l.08.28Z" transform="translate(-35.58 -24.29)"/><path class="cls-3" d="M442.33,408.22l-.44,24.43-14.89,0-1.31-24.57ZM426.85,413l-.07.24c0,2.77.08,4.85.19,6.22a24.71,24.71,0,0,0,.07-3.72l-.07-1.52Zm.6,6.32c0,.29,0,.51,0,.67,0,1.05.13,2.14.28,3.27h.07l-.12-2.74c0-1.72-.09-3.87-.2-6.45a6.73,6.73,0,0,0-.12,2C427.39,417.48,427.41,418.54,427.45,419.34Zm.47-7.07a9.52,9.52,0,0,0,.13,2.63A10.23,10.23,0,0,0,427.92,412.27Zm9.83.18-7.3-.5-.3,17.93,7.79.28Z" transform="translate(-35.58 -24.29)"/></g><path class="cls-1" d="M402.88,76.25a215.14,215.14,0,0,0-72.24,3.11l-37.05-47.3a5.74,5.74,0,0,0-10.19,2.69l-4.8,30.69,8.88,5.13a2.75,2.75,0,0,1,.12,4.69l-11.74,7.63-21.45,137a1.47,1.47,0,0,0,2.48,1.28L315.66,164a23.87,23.87,0,1,1,34.21-33.31l53.7-52.28A1.25,1.25,0,0,0,402.88,76.25Z" transform="translate(-35.58 -24.29)"/><line class="cls-4" x1="437.93" y1="95.14" x2="490.05" y2="88.35"/><line class="cls-4" x1="439.93" y1="113.23" x2="492.05" y2="106.44"/><line class="cls-4" x1="442.93" y1="130.32" x2="495.05" y2="123.53"/><line class="cls-4" x1="243.05" y1="95.14" x2="190.93" y2="88.35"/><line class="cls-4" x1="241.05" y1="113.23" x2="188.93" y2="106.44"/><line class="cls-4" x1="238.05" y1="130.32" x2="185.93" y2="123.53"/><path class="cls-3" d="M160.27,421.37a46.4,46.4,0,0,0,18,1.51,30.71,30.71,0,0,0,8-2.18c2.74-1.11,5.41-2.39,8.18-3.73,5.46-2.69,11.7-5.56,18.37-7.13a70.48,70.48,0,0,1,10-1.65,92.63,92.63,0,0,1,10-.35,83.28,83.28,0,0,1,10,.74,66.85,66.85,0,0,1,10,2.22,69.46,69.46,0,0,1,9.35,3.69,77.73,77.73,0,0,0,7.83,3.39,75.18,75.18,0,0,0,17.31,2.88c6.08.41,12.32.29,18.72.31a79.84,79.84,0,0,1-18.27,6.06,59.67,59.67,0,0,1-20,.72,42.07,42.07,0,0,1-5.25-1.22c-1.63-.48-3.16-1-4.61-1.5-2.92-1-5.61-1.8-8.36-2.43a72.33,72.33,0,0,0-8.35-1.38c-2.85-.26-5.73-.48-8.67-.49-1.46-.05-2.92,0-4.39,0s-2.9.11-4.36.15a82.81,82.81,0,0,0-8.52.93,83.94,83.94,0,0,0-8.39,1.88c-2.81.81-5.72,1.75-8.77,2.69a86.61,86.61,0,0,1-9.52,2.41,32.6,32.6,0,0,1-10.46.36,35.11,35.11,0,0,1-9.68-2.73A31.83,31.83,0,0,1,160.27,421.37Z" transform="translate(-35.58 -24.29)"/><path class="cls-3" d="M448.82,421.19a46.56,46.56,0,0,0,18,1.51,30.63,30.63,0,0,0,8-2.18c2.74-1.11,5.42-2.39,8.18-3.73a87.22,87.22,0,0,1,18.37-7.13,72.1,72.1,0,0,1,10-1.66,92.46,92.46,0,0,1,10-.35,85.08,85.08,0,0,1,10,.75,67.25,67.25,0,0,1,10,2.22,69.82,69.82,0,0,1,9.34,3.68,53.81,53.81,0,0,0,25.14,6.28c6.08.4,12.32.28,18.73.31a79.26,79.26,0,0,1-18.28,6.05,59.4,59.4,0,0,1-20,.73,42.07,42.07,0,0,1-5.25-1.22c-1.62-.49-3.16-1-4.61-1.5-2.91-1-5.6-1.8-8.35-2.43a72.5,72.5,0,0,0-8.36-1.38c-2.85-.26-5.72-.48-8.66-.49-1.46,0-2.93,0-4.39,0s-2.91.1-4.36.15a82.5,82.5,0,0,0-8.52.92,83.39,83.39,0,0,0-8.39,1.89c-2.82.8-5.72,1.75-8.78,2.68a86.44,86.44,0,0,1-9.51,2.42,33,33,0,0,1-10.47.36,35.56,35.56,0,0,1-9.68-2.73A31.61,31.61,0,0,1,448.82,421.19Z" transform="translate(-35.58 -24.29)"/></svg>